<?xml version="1.0" encoding="iso-8859-1"?>
<!-- Generator: Adobe Illustrator 19.0.0, SVG Export Plug-In . SVG Version: 6.00 Build 0)  -->
<svg version="1.1" id="Capa_1" xmlns="http://www.w3.org/2000/svg" xmlns:xlink="http://www.w3.org/1999/xlink" x="0px" y="0px"
	 viewBox="0 0 512.001 512.001" style="enable-background:new 0 0 512.001 512.001;" xml:space="preserve">
<g>
	<path style="fill:#5D6D7D;" d="M83.19,473.844H54.959c-4.532,0-8.205-3.674-8.205-8.205v-46.738h44.641v46.738
		C91.395,470.171,87.721,473.844,83.19,473.844z"/>
	<path style="fill:#5D6D7D;" d="M457.041,473.844H428.81c-4.532,0-8.205-3.674-8.205-8.205v-46.738h44.641v46.738
		C465.246,470.171,461.573,473.844,457.041,473.844z"/>
</g>
<path style="fill:#E1EFFB;" d="M497.225,439.083H14.775C6.615,439.083,0,432.468,0,424.309V52.931
	c0-8.16,6.615-14.775,14.775-14.775h482.451c8.16,0,14.775,6.615,14.775,14.775v371.377
	C512,432.468,505.385,439.083,497.225,439.083z"/>
<path style="fill:#BACED8;" d="M497.225,38.156h-35.361v400.927h35.361c8.16,0,14.775-6.615,14.775-14.775V52.931
	C512,44.771,505.385,38.156,497.225,38.156z"/>
<path style="fill:#24D9DE;" d="M34.557,354.798V76.925c0-2.326,1.886-4.212,4.212-4.212h434.463c2.326,0,4.212,1.886,4.212,4.212
	v277.873c0,2.326-1.886,4.212-4.212,4.212H38.769C36.442,359.01,34.557,357.124,34.557,354.798z"/>
<path style="fill:#11B9C1;" d="M473.232,72.712h-46.439V359.01h46.439c2.326,0,4.212-1.886,4.212-4.212V76.925
	C477.444,74.598,475.558,72.712,473.232,72.712z"/>
<path style="fill:#F9644B;" d="M425.783,107.21c-12.566-3.785-20.35,4.455-24.192,8.597c-3.842-4.141-11.626-12.382-24.192-8.597
	c-18.285,5.508-18.173,33.994,12.611,54.073c3.637,2.372,9.397,5.657,11.277,6.739h0.607c1.881-1.082,7.64-4.367,11.277-6.739
	C443.955,141.204,444.068,112.718,425.783,107.21z"/>
<circle style="fill:#FFB123;" cx="452.47" cy="399.421" r="15.606"/>
<path style="fill:#FFFFFF;" d="M315.37,274.5c-2.925,0-5.791-1.144-7.951-3.303l-34.917-34.916H236.19
	c-2.99,0-5.805-1.159-7.928-3.264l-29.306-29.042v59.161c0,4.571-2.728,8.654-6.951,10.404c-4.222,1.749-9.04,0.792-12.273-2.441
	l-35.793-35.794H87.05c-4.267,0-7.726-3.459-7.726-7.726s3.459-7.726,7.726-7.726h58.624c3.008,0,5.836,1.172,7.963,3.298
	l29.866,29.866v-59.098c0-4.559,2.719-8.639,6.928-10.394c4.21-1.754,9.022-0.815,12.26,2.395l35.224,34.907h36.325
	c3.007,0,5.835,1.172,7.963,3.299l28.988,28.988v-59.598c0-4.473,2.648-8.523,6.746-10.316c4.096-1.795,8.869-0.991,12.156,2.044
	l38.57,35.632h56.286c4.268,0,7.726,3.459,7.726,7.726s-3.459,7.726-7.726,7.726h-57.926c-2.841,0-5.554-1.061-7.641-2.989
	l-32.739-30.245v60.138c0,4.57-2.728,8.654-6.952,10.403C318.291,274.217,316.824,274.5,315.37,274.5z M145.675,235.305h0.011
	H145.675z"/>
<path style="fill:#2C5871;" d="M357.301,407.145H164.314c-4.267,0-7.726-3.459-7.726-7.726s3.459-7.726,7.726-7.726h192.987
	c4.268,0,7.726,3.459,7.726,7.726C365.027,403.686,361.568,407.145,357.301,407.145z"/>
<g>
</g>
<g>
</g>
<g>
</g>
<g>
</g>
<g>
</g>
<g>
</g>
<g>
</g>
<g>
</g>
<g>
</g>
<g>
</g>
<g>
</g>
<g>
</g>
<g>
</g>
<g>
</g>
<g>
</g>
</svg>
