<?xml version="1.0" encoding="iso-8859-1"?>
<!-- Generator: Adobe Illustrator 19.0.0, SVG Export Plug-In . SVG Version: 6.00 Build 0)  -->
<svg version="1.1" id="Capa_1" xmlns="http://www.w3.org/2000/svg" xmlns:xlink="http://www.w3.org/1999/xlink" x="0px" y="0px"
	 viewBox="0 0 477.518 477.518" style="enable-background:new 0 0 477.518 477.518;" xml:space="preserve">
<g>
	<path style="fill:#00BBD3;" d="M426.318,457.665c0-31.869-26.122-57.992-57.992-57.992c-24.555,0-45.976,15.151-54.335,37.616
		c-16.196,2.09-31.347,10.971-40.751,24.555h153.078C426.318,460.277,426.318,459.233,426.318,457.665z"/>
	<path style="fill:#00BBD3;" d="M179.722,438.857c-1.045,0-1.567,0-2.612,0c-6.269-20.898-25.078-35.527-47.543-35.527
		c-15.673,0-30.302,7.314-39.706,19.331c-3.657-0.522-6.792-1.045-10.449-1.045c-24.555,0-45.453,17.241-50.678,40.229h189.649
		C211.069,448.261,195.918,438.857,179.722,438.857z"/>
</g>
<path style="fill:#3A2C51;" d="M462.367,456.62h-36.049H273.241h-54.857H28.735H15.151c-5.747,0-10.449,4.702-10.449,10.449
	c0,5.747,4.702,10.449,10.449,10.449h447.216c5.747,0,10.449-4.702,10.449-10.449C472.816,461.322,468.114,456.62,462.367,456.62z"
	/>
<g>
	<path style="fill:#00BBD3;" d="M128,308.245c2.612,0,5.224-1.045,6.792-2.612l37.094-33.437c0-0.522-0.522-0.522-0.522-1.045
		c-2.09-5.224-3.657-9.927-5.224-15.151c-0.522-1.567-1.567-3.657-1.567-6.269c-1.045-2.612-1.567-5.224-2.09-7.837
		c-0.522-3.135-1.567-5.747-2.09-8.359v-0.522c-3.135-16.718-4.702-33.959-4.18-50.155c0-3.135,0-5.747,0-8.359
		c-13.584,4.18-24.033,13.061-31.869,19.331c-15.673,14.106-24.555,33.437-25.6,54.335c-1.045,20.898,6.269,41.273,20.898,56.424
		C122.253,307.2,125.388,308.245,128,308.245z"/>
	<path style="fill:#00BBD3;" d="M322.873,182.857c0,16.196-1.567,32.914-4.702,49.11c-1.045,5.224-2.09,10.449-3.657,15.673
		l-0.522,3.135v0.522c0,0.522-0.522,1.045-0.522,1.567c0,1.045,0,1.567-0.522,2.612c-1.567,5.224-3.135,10.449-5.224,15.673
		c0,0.522,0,0.522-0.522,1.045l36.049,32.914c2.09,2.09,4.702,2.612,7.314,2.612s5.747-1.045,7.837-3.135
		c14.106-15.673,21.42-35.527,20.898-56.424c-1.045-20.898-9.927-40.229-25.6-54.335c-7.314-6.792-17.763-15.151-31.347-19.331l0,0
		C322.873,177.11,322.873,180.245,322.873,182.857z"/>
</g>
<g>
	<path style="fill:#3A2C51;" d="M228.31,377.731v35.004c0,5.747,4.702,10.449,10.449,10.449c5.747,0,10.449-4.702,10.449-10.449
		v-35.004c0-5.747-4.702-10.449-10.449-10.449C233.012,367.282,228.31,371.984,228.31,377.731z"/>
	<path style="fill:#3A2C51;" d="M271.151,367.804v30.302c0,5.747,4.702,10.449,10.449,10.449c5.747,0,10.449-4.702,10.449-10.449
		v-30.302c0-5.747-4.702-10.449-10.449-10.449C275.853,357.355,271.151,362.057,271.151,367.804z"/>
	<path style="fill:#3A2C51;" d="M185.469,367.804v25.078c0,5.747,4.702,10.449,10.449,10.449s10.449-4.702,10.449-10.449v-25.078
		c0-5.747-4.702-10.449-10.449-10.449S185.469,362.057,185.469,367.804z"/>
</g>
<path style="fill:#4DCFE0;" d="M158.302,233.012L158.302,233.012c0.522,3.135,1.567,5.747,2.09,8.882
	c0.522,2.612,1.045,5.224,2.09,7.837c0,2.612,1.045,4.702,1.567,6.269c1.567,5.224,3.135,9.927,5.224,15.151
	c0,0.522,0.522,0.522,0.522,1.045c7.314,19.853,16.718,38.661,28.212,56.424c8.359,11.494,27.69,15.673,43.886,15.673
	c0,0,0,0,0.522,0c9.927,0,28.212-2.09,36.049-13.061c13.061-18.808,22.988-38.661,30.302-59.037c0-0.522,0-0.522,0.522-1.045
	c2.09-5.224,3.657-10.449,5.224-15.673c0.522-1.045,0.522-1.567,0.522-2.612c0-0.522,0.522-1.045,0.522-1.567v-0.522l0.522-3.135
	c1.567-5.225,2.612-10.449,3.657-15.673c3.135-16.196,4.702-32.914,4.702-49.11c0-2.612,0-5.747,0-8.359l0,0
	c-1.045-42.841-13.584-84.114-38.139-122.253c-10.449-16.196-23.51-32.914-39.706-49.11c-4.18-4.18-10.449-4.18-14.629,0
	c-15.673,15.151-28.212,30.824-39.706,49.11c-23.51,38.139-36.571,78.89-38.139,121.731c0,0,0,0,0,0.522c0,3.135,0,5.747,0,8.359
	C153.6,199.053,155.167,216.294,158.302,233.012z"/>
<path style="fill:#D4E1F4;" d="M238.759,196.963c10.971,0,21.943-4.702,29.257-12.539c7.837-7.314,12.539-18.286,12.539-29.257
	c0-1.567,0-2.612,0-4.18l0,0c-1.045-9.404-5.224-18.286-12.016-24.555c-7.314-7.837-18.286-13.061-29.78-13.061
	c-10.449,0-21.42,4.702-29.257,12.539s-12.539,18.808-12.539,29.257C196.963,178.155,215.771,196.963,238.759,196.963z
	 M224.653,140.016c4.18-4.18,9.404-6.269,14.629-6.269s10.971,2.09,14.629,6.269c4.18,4.18,6.269,9.404,6.269,14.629
	c-0.522,6.269-2.612,11.494-6.269,14.629l-0.522,0.522c-3.657,3.657-8.882,5.747-14.106,5.747c-11.494,0-20.898-9.404-20.898-20.898
	C218.384,149.42,220.473,144.196,224.653,140.016z"/>
<g>
	<path style="fill:#00BBD3;" d="M276.898,57.469c-10.449-16.718-23.51-31.869-37.616-46.498
		c-15.151,14.629-27.69,30.302-38.139,47.02C224.131,72.62,253.91,72.62,276.898,57.469z"/>
	<path style="fill:#00BBD3;" d="M239.282,322.873c12.016,0,19.331-2.612,20.898-4.18c14.629-20.898,25.078-42.318,31.869-65.306
		c-33.959,17.241-73.665,16.718-107.102-0.522c7.314,22.988,17.241,43.886,29.78,63.216
		C216.294,318.171,225.175,322.351,239.282,322.873z"/>
</g>
<g>
</g>
<g>
</g>
<g>
</g>
<g>
</g>
<g>
</g>
<g>
</g>
<g>
</g>
<g>
</g>
<g>
</g>
<g>
</g>
<g>
</g>
<g>
</g>
<g>
</g>
<g>
</g>
<g>
</g>
</svg>
