<?xml version="1.0" encoding="iso-8859-1"?>
<!-- Generator: Adobe Illustrator 19.0.0, SVG Export Plug-In . SVG Version: 6.00 Build 0)  -->
<svg version="1.1" id="Capa_1" xmlns="http://www.w3.org/2000/svg" xmlns:xlink="http://www.w3.org/1999/xlink" x="0px" y="0px"
	 viewBox="0 0 448 448" style="enable-background:new 0 0 448 448;" xml:space="preserve">
<path style="fill:#F44336;" d="M224,288c52.928,0,96-43.072,96-96V96c0-52.928-43.072-96-96-96s-96,43.072-96,96v96
	C128,244.928,171.072,288,224,288z"/>
<path style="fill:#455A64;" d="M368,128c-8.832,0-16,7.168-16,16v48c0,70.592-57.408,128-128,128S96,262.592,96,192v-48
	c0-8.832-7.168-16-16-16s-16,7.168-16,16v48c0,82.72,63.36,150.208,144,158.368V432c0,8.832,7.168,16,16,16s16-7.168,16-16v-81.632
	c80.64-8.16,144-75.616,144-158.368v-48C384,135.168,376.832,128,368,128z"/>
<g>
</g>
<g>
</g>
<g>
</g>
<g>
</g>
<g>
</g>
<g>
</g>
<g>
</g>
<g>
</g>
<g>
</g>
<g>
</g>
<g>
</g>
<g>
</g>
<g>
</g>
<g>
</g>
<g>
</g>
</svg>
